<?xml version="1.0" encoding="UTF-8"?>
<svg id="Layer_1" data-name="Layer 1" xmlns="http://www.w3.org/2000/svg" viewBox="0 0 195 195.01">
  <defs>
    <style>
      .cls-1, .cls-2 {
        stroke-width: 0px;
      }

      .cls-2 {
        fill: #fff;
      }
    </style>
  </defs>
  <path class="cls-1" d="M195,97.57c0,53.88-43.64,97.46-97.58,97.45C43.44,194.99-.05,151.34,0,97.19.05,43.58,43.94-.22,98.11,0c53.36.22,96.89,43.9,96.89,97.57ZM108.38,3.94c-.07.74-.2,1.48-.2,2.22.07,7.51.17,15.02.23,22.53.02,2.35.8,4.38,2.34,6.12.64.72,1.34,1.37,1.99,2.08,1.15,1.24,2.63,1.81,4.24,1.99,3.11.35,6.09-.33,8.75-1.86,2.76-1.59,5.38-3.36,8.4-4.53,3.87-1.5,7.65-1.24,11.27.37,4.18,1.85,7.19,5.24,8.94,9.33,2.83,6.63,2.71,13.45-.13,20.13-1.07,2.53-2.35,4.97-3.46,7.49-1.55,3.54-3.2,7.04-4.49,10.68-1.07,3.02-.96,6.21.64,9.06,1.48,2.63,3.19,5.15,5,7.58,1.61,2.18,3.49,4.16,5.25,6.23,5.68,6.67,10.41,13.93,13.47,22.19,2.87,7.73,4.04,15.65,2.81,23.86-.24,1.59-.52,3.16-.81,4.94,17.31-21.5,26.69-58.01,11.99-93.13C168.82,23.48,134.27,6.23,108.38,3.94ZM89.88,3.54C52.43,6.26,17.61,32.56,6.57,72.28c-4.43,15.94-4.63,31.99-.63,48.05,3.8,15.29,15.81,36.97,23.3,42.04-.64-1.69-1.33-3.22-1.81-4.81-2.25-7.48-3.44-15.08-2.22-22.91.86-5.51,2.33-10.83,4.91-15.79,3.45-6.63,8.05-12.46,12.79-18.19,2.92-3.54,5.66-7.22,8.42-10.88,1.15-1.52,1.36-3.37,1.47-5.22.23-3.75-1.13-7.11-2.52-10.48-2.12-5.16-4.47-10.25-6.17-15.54-3.04-9.45-1.28-18.39,4.41-26.36,3.23-4.52,7.99-7.49,13.12-9.55,5.58-2.24,11.52-3.06,17.52-3.41,2.75-.16,5.5-.39,8.23-.72,1.68-.21,2.23-.96,2.3-2.63.16-3.83.3-7.66.43-11.49,0-.26-.14-.52-.22-.84ZM109.94,42.13c-.16.6-.32.97-.33,1.34-.09,2.87-.19,5.74-.19,8.61,0,.64.32,1.3.59,1.91.09.2.48.39.73.39,1.19-.01,2.38-.06,3.57-.15.87-.07,1.09.31,1.08,1.12-.03,2.52,0,5.03,0,7.55,0,2.67,0,5.33,0,8.16h-5.02v28.06c.98-.08,2.12-.27,3.26-.21.48.02,1.33.57,1.34.89.06,3.15-.06,6.29-.04,9.44,0,1.25.26,2.51.37,3.51,1.24-.05,2.31-.2,3.35-.11,1.1.09,2.24.27,3.28.65,3.36,1.24,6.68,2.56,9.99,3.93.43.18.95.83.93,1.24-.08,1.21-.48,2.4-.62,3.61-.07.66-.13,1.61.24,1.97,2.17,2.08,3.44,4.65,4.5,7.39,1.57,4.05,3.05,8.14,4.89,12.07.76,1.62,2.2,3.03,3.61,4.2,2,1.66,4.07,1.54,6.27.11,2.04-1.33,2.17-3.63.27-5.13-.34-.27-.7-.56-1.1-.7-.3-.11-.68-.05-1.01,0-1.51.27-2.67,1.07-3.36,2.65-.49-.82-.85-1.39-1.17-1.99-4.18-7.64-5.15-15.84-4.26-24.36.1-.91,0-1.95.41-2.69,1.81-3.24,1.88-6.71,1.11-10.11-1-4.42-2.14-8.85-3.72-13.09-2.27-6.08-4.93-12.02-7.53-17.97-2.55-5.83-3.54-11.74-1.32-17.89.6-1.66,1.39-3.25,2.18-5.08-9.39,1.68-16.77-1.46-22.32-9.31ZM87.39,56.2v13.33h25.04v-13.33h-25.04ZM65.64,123.41c-.87-5.26-1.48-10.51-.89-15.84.43-3.88,1.28-7.62,3.16-11.06.54-.99,1.29-1.86,1.92-2.75.97.6,1.66,1.24,2.47,1.46.73.2,1.85.22,2.33-.2.79-.7,1.71-1.84,1.69-2.78-.06-2.99-3.82-4.94-6.2-2.87-1.07.93-2.13,1.92-3,3.05-2.26,2.93-3.25,6.44-4.3,9.93-.92,3.08-1.7,6.24-3.86,8.78-.79.93-1.94,1.74-2.28,2.81-.35,1.14.05,2.52.16,3.79.44,5,.29,9.97-1.03,14.84-.98,3.61-2.29,7.1-4.6,10.14-.36-.46-.63-.94-1.02-1.25-.95-.74-2.01-1.47-3.26-.9-1.35.62-2.63,1.41-2.63,3.2,0,1.44,2.92,3.89,4.58,3.75,2.61-.22,4.81-1.55,5.92-3.73,2.19-4.32,3.97-8.86,5.84-13.34,1.12-2.68,2.4-5.22,4.98-7.02ZM87.36,114.12h24.8v-12.82h-24.8v12.82ZM98.96,144.46v2.36h3.54c-1.05,1.96-3.64,2.49-5.76,1.26-2.13-1.24-2.85-3.92-1.59-5.89,1.59-2.49,4.43-2.66,7.64-.47.55-.56,1.09-1.11,1.63-1.66-2.19-2.58-6.45-3.19-9.33-1.32-2.89,1.88-3.91,5.57-2.39,8.65,1.54,3.13,5.35,4.59,8.79,3.37,2.57-.92,4.41-3.89,3.86-6.29h-6.38ZM87.52,145.17c.29-.17.49-.28.7-.4,1.37-.81,1.95-2.1,1.71-3.77-.22-1.51-1.22-2.73-2.77-2.89-1.6-.17-3.23-.04-4.81-.04v12.73h2.43v-5.13c.89,1.26,1.68,2.51,2.26,3.86.49,1.15,1.21,1.56,2.39,1.37.3-.05.62-.04,1.1-.06-1.02-1.93-1.98-3.74-3-5.67ZM107.7,137.99c0,3.24-.08,6.35.03,9.45.08,2.33,1.88,3.72,4.43,3.69,2.38-.02,4.09-1.53,4.16-3.85.09-2.87.07-5.74.08-8.62,0-.22-.06-.45-.09-.67h-2.41c0,1.01,0,1.96,0,2.91,0,1.92.04,3.83-.03,5.74-.05,1.39-.8,2.12-1.95,2.07-1.11-.04-1.7-.72-1.78-2.11-.03-.52,0-1.04,0-1.56,0-2.34,0-4.68,0-7.07h-2.43ZM69.44,163.52c-2.13-1.3-3.91-1.15-5.22.4-1.35,1.59-1.35,4.16,0,5.75,1.36,1.62,3.05,1.79,5.22.55.51,1.05,1.37.4,2.12.53v-7.9c-.75.26-1.67-.54-2.1.68ZM130.36,167.43c.26-2.37-1.08-4.3-3.17-4.73-2.21-.46-4.31.68-4.99,2.7-.72,2.13.27,4.51,2.22,5.32,1.69.7,4.58.39,5.32-1.49-.78-.64-1.51-.86-2.55-.36-1.41.68-2.6.06-3.12-1.45h6.29ZM90.98,168.69c.95,1.85,2.09,2.5,3.97,2.34,1.32-.11,2.35-.92,2.73-2.16.53-1.74-.4-2.89-1.63-3.91-.7-.59-1.43-1.16-2.06-1.82-.23-.24-.2-.74-.29-1.12.43-.05.91-.24,1.27-.11.42.14.74.57,1.15.91.46-.4.94-.82,1.41-1.23-1.27-1.87-3.29-2.41-4.86-1.34-1.45.99-1.71,2.65-.49,4.03.92,1.04,2.08,1.86,3.02,2.88.29.31.21.96.3,1.46-.57.08-1.2.34-1.7.19-.45-.14-.76-.73-1.16-1.15-.6.37-1.14.7-1.67,1.02ZM103.42,171.04c2.39-.01,4.26-1.9,4.24-4.25-.03-2.33-1.95-4.17-4.34-4.15-2.3.02-4.17,1.9-4.17,4.2,0,2.36,1.89,4.22,4.28,4.2ZM137.38,173.56c1.48.45,2.22-.06,2.78-1.43,1.12-2.72,2.46-5.35,3.71-8.03.17-.37.3-.75.43-1.09-1.55-.49-2.32.1-2.77,1.46-.35,1.06-.93,2.04-1.46,3.17-.16-.26-.21-.32-.24-.39-.42-.99-.83-1.99-1.24-2.98-.66-1.57-.77-1.62-2.66-1.21.58,1.41,1.03,2.87,1.77,4.17,1.15,2.03,1.29,3.91-.16,5.82-.09.12-.1.29-.17.51ZM117.07,164.56c-1.54-1.87-3.55-2.42-5.57-1.62-1.76.69-2.9,2.45-2.73,4.21.19,1.92,1.45,3.39,3.28,3.81,2.01.46,3.93-.23,4.81-1.75-.47-.34-.95-.68-1.41-1.01-1.69,1.16-3.11,1.2-4.05.16-.72-.8-.73-2.15-.01-2.96.96-1.09,2.33-1.06,4.09.11.49-.29,1-.59,1.58-.93ZM72.81,170.72h6.45v-1.89h-3.08c1.14-2.03,2.2-3.91,3.31-5.88h-6.11v1.86h2.78c-1.15,2.04-2.2,3.9-3.34,5.91ZM83.1,168.88c1.17-2.07,2.22-3.95,3.33-5.92h-6.12v1.85h2.78c-1.17,2.07-2.23,3.95-3.34,5.91h6.44v-1.84h-3.11ZM59.27,160.07c0,2.41.03,4.75-.02,7.09-.01.64-.24,1.27-.37,1.91-.6-.22-1.19-.45-1.93-.73-.33.29-.79.71-1.29,1.15.24.26.4.49.61.66,1.06.86,2.26,1.18,3.56.67,1.33-.52,1.58-1.67,1.56-2.94,0-.84.02-1.67.02-2.51,0-1.78,0-3.55,0-5.32h-2.16ZM132.42,170.71h2.12v-5.84c.43-.06.76-.1,1.14-.15v-1.74c-.39-.08-.76-.16-1.21-.26v-2.89h-1.87c-.68,1.04.72,2.66-1.1,3.23v1.64c.14-.03.27-.06.41-.1.17.38.48.75.49,1.14.06,1.63.02,3.26.02,4.96ZM118.59,162.94v7.8h2v-7.8h-2ZM121.07,161.18c0-.19.01-.37.02-.56-.51-.37-.97-.93-1.53-1.05-.76-.15-1.24.45-1.27,1.22-.03.84.48,1.43,1.29,1.33.53-.07.99-.61,1.49-.94Z"/>
  <path class="cls-2" d="M69.58,166.86c0-1.29-.88-2.26-2.08-2.29-1.18-.03-2.18.96-2.22,2.19-.04,1.27.97,2.36,2.18,2.36,1.19,0,2.11-.98,2.12-2.25Z"/>
  <path class="cls-2" d="M128.22,165.7c-1.05-1.52-3.1-1.51-3.88,0h3.88Z"/>
  <path class="cls-1" d="M84.79,140.41c1.86-.15,2.65.24,2.67,1.25.01,1.03-.73,1.39-2.67,1.24v-2.5Z"/>
  <path class="cls-1" d="M69.58,166.86c0,1.27-.93,2.25-2.12,2.25-1.21,0-2.22-1.09-2.18-2.36.04-1.23,1.04-2.22,2.22-2.19,1.21.03,2.09,1,2.08,2.29Z"/>
  <path class="cls-1" d="M128.22,165.7h-3.88c.78-1.51,2.83-1.52,3.88,0Z"/>
</svg>